<?xml version="1.0" encoding="UTF-8"?>
<svg width="782px" height="300px" viewBox="0 0 782 300" version="1.1" xmlns="http://www.w3.org/2000/svg" xmlns:xlink="http://www.w3.org/1999/xlink">
    <title>Maxwells</title>
    <defs>
        <path d="M0,0 L782,0 L782,300 L0,300 L0,0 Z" id="path-1"></path>
    </defs>
    <g id="Maxwells" stroke="none" fill="none" xlink:href="#path-1" fill-rule="evenodd">
        <use fill="color(display-p3 0.000 0.000 0.000)" xlink:href="#path-1"></use>
        <g id="COFFEE" stroke-width="1" transform="translate(34.4905, 27.1963)" fill="color(display-p3 1.000 1.000 1.000)">
            <path d="M114.683203,64.8007813 C108.955339,58.1757812 103.451758,53.3795573 98.1724609,50.4121094 C92.8931641,47.4446615 87.1480469,45.9609375 80.9371094,45.9609375 C67.963151,45.9609375 57.4390625,50.9296875 49.3648438,60.8671875 C42.946875,68.734375 39.7378906,77.8782552 39.7378906,88.2988281 C39.7378906,100.789714 44.1200521,111.175781 52.884375,119.457031 C60.8895833,126.979167 70.3095052,130.740234 81.1441406,130.740234 C87.4240885,130.740234 93.2382161,129.239258 98.5865234,126.237305 C103.934831,123.235352 109.507422,118.352865 115.304297,111.589844 L140.044531,134.259766 C122.377865,153.23763 102.882422,162.726562 81.5582031,162.726562 C67.4110677,162.726562 54.2990885,159.207031 42.2222656,152.167969 C30.9045573,145.611979 21.9677083,136.744141 15.4117187,125.564453 C8.5796875,113.970703 5.16367187,101.583333 5.16367187,88.4023438 C5.16367187,75.2213542 8.54518229,62.8684896 15.3082031,51.34375 C22.2092448,39.6119792 31.5601562,30.4335937 43.3609375,23.8085937 C55.0927083,17.2526042 67.9286458,13.9746094 81.86875,13.9746094 C96.4299479,13.9746094 109.783464,18.1842448 121.929297,26.6035156 C127.519141,30.468099 133.350521,35.6438802 139.423437,42.1308594 L114.683203,64.8007813 Z" id="Path" fill-rule="nonzero"></path>
            <path d="M220.165625,13.9746094 C242.386979,13.9746094 261.123307,22.186849 276.374609,38.6113281 C289.624609,52.827474 296.249609,69.4244792 296.249609,88.4023438 C296.249609,101.652344 292.799089,114.039714 285.898047,125.564453 C279.273047,136.67513 270.267188,145.542969 258.880469,152.167969 C246.872656,159.207031 233.795182,162.726562 219.648047,162.726562 C206.329036,162.726562 193.63112,159.207031 181.554297,152.167969 C170.098568,145.542969 161.092708,136.67513 154.536719,125.564453 C147.635677,113.970703 144.185156,101.203776 144.185156,87.2636719 C144.185156,74.4277344 147.635677,62.4199219 154.536719,51.2402344 C161.851823,39.4394531 171.23724,30.2955729 182.692969,23.8085937 C194.355729,17.2526042 206.846615,13.9746094 220.165625,13.9746094 Z M220.165625,45.9609375 C207.398698,45.9609375 196.874609,50.9641927 188.593359,60.9707031 C182.03737,68.8378906 178.759375,77.7747396 178.759375,87.78125 C178.759375,100.686198 183.210547,111.244792 192.112891,119.457031 C200.32513,126.979167 209.607031,130.740234 219.958594,130.740234 C227.480729,130.740234 234.554297,128.738932 241.179297,124.736328 C247.804297,120.733724 252.911068,115.488932 256.499609,109.001953 C259.95013,102.722005 261.675391,95.8554688 261.675391,88.4023438 C261.675391,76.3255208 257.396745,66.077474 248.839453,57.6582031 C240.903255,49.860026 231.345313,45.9609375 220.165625,45.9609375 Z" id="Shape" fill-rule="nonzero"></path>
            <polygon id="Path" fill-rule="nonzero" points="390.703516 49.4804688 344.432031 49.4804688 344.432031 71.5292969 386.666406 71.5292969 386.666406 103.515625 344.432031 103.515625 344.432031 159 309.961328 159 309.961328 17.7011719 390.703516 17.7011719"></polygon>
            <polygon id="Path" fill-rule="nonzero" points="488.939844 49.4804688 442.668359 49.4804688 442.668359 71.5292969 484.902734 71.5292969 484.902734 103.515625 442.668359 103.515625 442.668359 159 408.197656 159 408.197656 17.7011719 488.939844 17.7011719"></polygon>
            <polygon id="Path" fill-rule="nonzero" points="591.627344 49.2734375 540.594141 49.2734375 540.594141 71.6328125 585.933984 71.6328125 585.933984 103.412109 540.594141 103.412109 540.594141 127.013672 593.490625 127.013672 593.490625 159 506.433984 159 506.433984 17.7011719 591.627344 17.7011719"></polygon>
            <polygon id="Path" fill-rule="nonzero" points="697.834375 49.2734375 646.801172 49.2734375 646.801172 71.6328125 692.141016 71.6328125 692.141016 103.412109 646.801172 103.412109 646.801172 127.013672 699.697656 127.013672 699.697656 159 612.641016 159 612.641016 17.7011719 697.834375 17.7011719"></polygon>
        </g>
        <g id="COFFEE" stroke-width="1" transform="translate(35.4905, 207.1963)" fill="color(display-p3 1.000 1.000 1.000)">
            <path d="M35.40625,19.5625 C33.6770833,17.5625 32.015625,16.1145833 30.421875,15.21875 C28.828125,14.3229167 27.09375,13.875 25.21875,13.875 C21.3020833,13.875 18.125,15.375 15.6875,18.375 C13.75,20.75 12.78125,23.5104167 12.78125,26.65625 C12.78125,30.4270833 14.1041667,33.5625 16.75,36.0625 C19.1666667,38.3333333 22.0104167,39.46875 25.28125,39.46875 C27.1770833,39.46875 28.9322917,39.015625 30.546875,38.109375 C32.1614583,37.203125 33.84375,35.7291667 35.59375,33.6875 L43.0625,40.53125 C37.7291667,46.2604167 31.84375,49.125 25.40625,49.125 C21.1354167,49.125 17.1770833,48.0625 13.53125,45.9375 C10.1145833,43.9583333 7.41666667,41.28125 5.4375,37.90625 C3.375,34.40625 2.34375,30.6666667 2.34375,26.6875 C2.34375,22.7083333 3.36458333,18.9791667 5.40625,15.5 C7.48958333,11.9583333 10.3125,9.1875 13.875,7.1875 C17.4166667,5.20833333 21.2916667,4.21875 25.5,4.21875 C29.8958333,4.21875 33.9270833,5.48958333 37.59375,8.03125 C39.28125,9.19791667 41.0416667,10.7604167 42.875,12.71875 L35.40625,19.5625 Z" id="Path" fill-rule="nonzero"></path>
            <path d="M67.25,4.21875 C73.9583333,4.21875 79.6145833,6.69791667 84.21875,11.65625 C88.21875,15.9479167 90.21875,20.9583333 90.21875,26.6875 C90.21875,30.6875 89.1770833,34.4270833 87.09375,37.90625 C85.09375,41.2604167 82.375,43.9375 78.9375,45.9375 C75.3125,48.0625 71.3645833,49.125 67.09375,49.125 C63.0729167,49.125 59.2395833,48.0625 55.59375,45.9375 C52.1354167,43.9375 49.4166667,41.2604167 47.4375,37.90625 C45.3541667,34.40625 44.3125,30.5520833 44.3125,26.34375 C44.3125,22.46875 45.3541667,18.84375 47.4375,15.46875 C49.6458333,11.90625 52.4791667,9.14583333 55.9375,7.1875 C59.4583333,5.20833333 63.2291667,4.21875 67.25,4.21875 Z M67.25,13.875 C63.3958333,13.875 60.21875,15.3854167 57.71875,18.40625 C55.7395833,20.78125 54.75,23.4791667 54.75,26.5 C54.75,30.3958333 56.09375,33.5833333 58.78125,36.0625 C61.2604167,38.3333333 64.0625,39.46875 67.1875,39.46875 C69.4583333,39.46875 71.59375,38.8645833 73.59375,37.65625 C75.59375,36.4479167 77.1354167,34.8645833 78.21875,32.90625 C79.2604167,31.0104167 79.78125,28.9375 79.78125,26.6875 C79.78125,23.0416667 78.4895833,19.9479167 75.90625,17.40625 C73.5104167,15.0520833 70.625,13.875 67.25,13.875 Z" id="Shape" fill-rule="nonzero"></path>
            <polygon id="Path" fill-rule="nonzero" points="118.03125 14.9375 104.0625 14.9375 104.0625 21.59375 116.8125 21.59375 116.8125 31.25 104.0625 31.25 104.0625 48 93.65625 48 93.65625 5.34375 118.03125 5.34375"></polygon>
            <polygon id="Path" fill-rule="nonzero" points="147.6875 14.9375 133.71875 14.9375 133.71875 21.59375 146.46875 21.59375 146.46875 31.25 133.71875 31.25 133.71875 48 123.3125 48 123.3125 5.34375 147.6875 5.34375"></polygon>
            <polygon id="Path" fill-rule="nonzero" points="178.6875 14.875 163.28125 14.875 163.28125 21.625 176.96875 21.625 176.96875 31.21875 163.28125 31.21875 163.28125 38.34375 179.25 38.34375 179.25 48 152.96875 48 152.96875 5.34375 178.6875 5.34375"></polygon>
            <polygon id="Path" fill-rule="nonzero" points="210.75 14.875 195.34375 14.875 195.34375 21.625 209.03125 21.625 209.03125 31.21875 195.34375 31.21875 195.34375 38.34375 211.3125 38.34375 211.3125 48 185.03125 48 185.03125 5.34375 210.75 5.34375"></polygon>
        </g>
        <g id="COFFEE" stroke-width="1" transform="translate(279.5, 207.1963)" fill="color(display-p3 1.000 1.000 1.000)">
            <path d="M35.40625,19.5625 C33.6770833,17.5625 32.015625,16.1145833 30.421875,15.21875 C28.828125,14.3229167 27.09375,13.875 25.21875,13.875 C21.3020833,13.875 18.125,15.375 15.6875,18.375 C13.75,20.75 12.78125,23.5104167 12.78125,26.65625 C12.78125,30.4270833 14.1041667,33.5625 16.75,36.0625 C19.1666667,38.3333333 22.0104167,39.46875 25.28125,39.46875 C27.1770833,39.46875 28.9322917,39.015625 30.546875,38.109375 C32.1614583,37.203125 33.84375,35.7291667 35.59375,33.6875 L43.0625,40.53125 C37.7291667,46.2604167 31.84375,49.125 25.40625,49.125 C21.1354167,49.125 17.1770833,48.0625 13.53125,45.9375 C10.1145833,43.9583333 7.41666667,41.28125 5.4375,37.90625 C3.375,34.40625 2.34375,30.6666667 2.34375,26.6875 C2.34375,22.7083333 3.36458333,18.9791667 5.40625,15.5 C7.48958333,11.9583333 10.3125,9.1875 13.875,7.1875 C17.4166667,5.20833333 21.2916667,4.21875 25.5,4.21875 C29.8958333,4.21875 33.9270833,5.48958333 37.59375,8.03125 C39.28125,9.19791667 41.0416667,10.7604167 42.875,12.71875 L35.40625,19.5625 Z" id="Path" fill-rule="nonzero"></path>
            <path d="M67.25,4.21875 C73.9583333,4.21875 79.6145833,6.69791667 84.21875,11.65625 C88.21875,15.9479167 90.21875,20.9583333 90.21875,26.6875 C90.21875,30.6875 89.1770833,34.4270833 87.09375,37.90625 C85.09375,41.2604167 82.375,43.9375 78.9375,45.9375 C75.3125,48.0625 71.3645833,49.125 67.09375,49.125 C63.0729167,49.125 59.2395833,48.0625 55.59375,45.9375 C52.1354167,43.9375 49.4166667,41.2604167 47.4375,37.90625 C45.3541667,34.40625 44.3125,30.5520833 44.3125,26.34375 C44.3125,22.46875 45.3541667,18.84375 47.4375,15.46875 C49.6458333,11.90625 52.4791667,9.14583333 55.9375,7.1875 C59.4583333,5.20833333 63.2291667,4.21875 67.25,4.21875 Z M67.25,13.875 C63.3958333,13.875 60.21875,15.3854167 57.71875,18.40625 C55.7395833,20.78125 54.75,23.4791667 54.75,26.5 C54.75,30.3958333 56.09375,33.5833333 58.78125,36.0625 C61.2604167,38.3333333 64.0625,39.46875 67.1875,39.46875 C69.4583333,39.46875 71.59375,38.8645833 73.59375,37.65625 C75.59375,36.4479167 77.1354167,34.8645833 78.21875,32.90625 C79.2604167,31.0104167 79.78125,28.9375 79.78125,26.6875 C79.78125,23.0416667 78.4895833,19.9479167 75.90625,17.40625 C73.5104167,15.0520833 70.625,13.875 67.25,13.875 Z" id="Shape" fill-rule="nonzero"></path>
            <polygon id="Path" fill-rule="nonzero" points="118.03125 14.9375 104.0625 14.9375 104.0625 21.59375 116.8125 21.59375 116.8125 31.25 104.0625 31.25 104.0625 48 93.65625 48 93.65625 5.34375 118.03125 5.34375"></polygon>
            <polygon id="Path" fill-rule="nonzero" points="147.6875 14.9375 133.71875 14.9375 133.71875 21.59375 146.46875 21.59375 146.46875 31.25 133.71875 31.25 133.71875 48 123.3125 48 123.3125 5.34375 147.6875 5.34375"></polygon>
            <polygon id="Path" fill-rule="nonzero" points="178.6875 14.875 163.28125 14.875 163.28125 21.625 176.96875 21.625 176.96875 31.21875 163.28125 31.21875 163.28125 38.34375 179.25 38.34375 179.25 48 152.96875 48 152.96875 5.34375 178.6875 5.34375"></polygon>
            <polygon id="Path" fill-rule="nonzero" points="210.75 14.875 195.34375 14.875 195.34375 21.625 209.03125 21.625 209.03125 31.21875 195.34375 31.21875 195.34375 38.34375 211.3125 38.34375 211.3125 48 185.03125 48 185.03125 5.34375 210.75 5.34375"></polygon>
        </g>
        <g id="COFFEE" stroke-width="1" transform="translate(523.5, 207.1963)" fill="color(display-p3 1.000 1.000 1.000)">
            <path d="M35.40625,19.5625 C33.6770833,17.5625 32.015625,16.1145833 30.421875,15.21875 C28.828125,14.3229167 27.09375,13.875 25.21875,13.875 C21.3020833,13.875 18.125,15.375 15.6875,18.375 C13.75,20.75 12.78125,23.5104167 12.78125,26.65625 C12.78125,30.4270833 14.1041667,33.5625 16.75,36.0625 C19.1666667,38.3333333 22.0104167,39.46875 25.28125,39.46875 C27.1770833,39.46875 28.9322917,39.015625 30.546875,38.109375 C32.1614583,37.203125 33.84375,35.7291667 35.59375,33.6875 L43.0625,40.53125 C37.7291667,46.2604167 31.84375,49.125 25.40625,49.125 C21.1354167,49.125 17.1770833,48.0625 13.53125,45.9375 C10.1145833,43.9583333 7.41666667,41.28125 5.4375,37.90625 C3.375,34.40625 2.34375,30.6666667 2.34375,26.6875 C2.34375,22.7083333 3.36458333,18.9791667 5.40625,15.5 C7.48958333,11.9583333 10.3125,9.1875 13.875,7.1875 C17.4166667,5.20833333 21.2916667,4.21875 25.5,4.21875 C29.8958333,4.21875 33.9270833,5.48958333 37.59375,8.03125 C39.28125,9.19791667 41.0416667,10.7604167 42.875,12.71875 L35.40625,19.5625 Z" id="Path" fill-rule="nonzero"></path>
            <path d="M67.25,4.21875 C73.9583333,4.21875 79.6145833,6.69791667 84.21875,11.65625 C88.21875,15.9479167 90.21875,20.9583333 90.21875,26.6875 C90.21875,30.6875 89.1770833,34.4270833 87.09375,37.90625 C85.09375,41.2604167 82.375,43.9375 78.9375,45.9375 C75.3125,48.0625 71.3645833,49.125 67.09375,49.125 C63.0729167,49.125 59.2395833,48.0625 55.59375,45.9375 C52.1354167,43.9375 49.4166667,41.2604167 47.4375,37.90625 C45.3541667,34.40625 44.3125,30.5520833 44.3125,26.34375 C44.3125,22.46875 45.3541667,18.84375 47.4375,15.46875 C49.6458333,11.90625 52.4791667,9.14583333 55.9375,7.1875 C59.4583333,5.20833333 63.2291667,4.21875 67.25,4.21875 Z M67.25,13.875 C63.3958333,13.875 60.21875,15.3854167 57.71875,18.40625 C55.7395833,20.78125 54.75,23.4791667 54.75,26.5 C54.75,30.3958333 56.09375,33.5833333 58.78125,36.0625 C61.2604167,38.3333333 64.0625,39.46875 67.1875,39.46875 C69.4583333,39.46875 71.59375,38.8645833 73.59375,37.65625 C75.59375,36.4479167 77.1354167,34.8645833 78.21875,32.90625 C79.2604167,31.0104167 79.78125,28.9375 79.78125,26.6875 C79.78125,23.0416667 78.4895833,19.9479167 75.90625,17.40625 C73.5104167,15.0520833 70.625,13.875 67.25,13.875 Z" id="Shape" fill-rule="nonzero"></path>
            <polygon id="Path" fill-rule="nonzero" points="118.03125 14.9375 104.0625 14.9375 104.0625 21.59375 116.8125 21.59375 116.8125 31.25 104.0625 31.25 104.0625 48 93.65625 48 93.65625 5.34375 118.03125 5.34375"></polygon>
            <polygon id="Path" fill-rule="nonzero" points="147.6875 14.9375 133.71875 14.9375 133.71875 21.59375 146.46875 21.59375 146.46875 31.25 133.71875 31.25 133.71875 48 123.3125 48 123.3125 5.34375 147.6875 5.34375"></polygon>
            <polygon id="Path" fill-rule="nonzero" points="178.6875 14.875 163.28125 14.875 163.28125 21.625 176.96875 21.625 176.96875 31.21875 163.28125 31.21875 163.28125 38.34375 179.25 38.34375 179.25 48 152.96875 48 152.96875 5.34375 178.6875 5.34375"></polygon>
            <polygon id="Path" fill-rule="nonzero" points="210.75 14.875 195.34375 14.875 195.34375 21.625 209.03125 21.625 209.03125 31.21875 195.34375 31.21875 195.34375 38.34375 211.3125 38.34375 211.3125 48 185.03125 48 185.03125 5.34375 210.75 5.34375"></polygon>
        </g>
    </g>
</svg>