<?xml version="1.0" encoding="UTF-8"?>
<svg width="1000px" height="112px" viewBox="0 0 1000 112" version="1.1" xmlns="http://www.w3.org/2000/svg" xmlns:xlink="http://www.w3.org/1999/xlink">
    <title>Long</title>
    <defs>
        <path d="M0,0 L1000,0 L1000,112 L0,112 L0,0 Z" id="path-1"></path>
    </defs>
    <g id="Long" stroke="none" fill="none" xlink:href="#path-1" fill-rule="evenodd">
        <use fill="color(display-p3 0.000 0.000 0.000)" xlink:href="#path-1"></use>
        <g id="COFFEE" stroke-width="1" transform="translate(27, 56)" fill="color(display-p3 1.000 1.000 1.000)">
            <path d="M33.0674443,15.3757829 C31.338019,13.3716075 29.6763122,11.9206681 28.0823239,11.0229645 C26.4883356,10.125261 24.7537012,9.67640919 22.8784208,9.67640919 C18.9611684,9.67640919 15.78361,11.1795407 13.3457455,14.1858038 C11.4079557,16.565762 10.4390609,19.3319415 10.4390609,22.4843424 C10.4390609,26.263048 11.7621754,29.4050104 14.4084044,31.9102296 C16.8254324,34.1858038 19.6696077,35.3235908 22.9409302,35.3235908 C24.837047,35.3235908 26.5925178,34.8695198 28.2073426,33.9613779 C29.8221674,33.0532359 31.5047106,31.5762004 33.2549723,29.5302714 L40.7248392,36.388309 C35.3907083,42.1294363 29.5044115,45 23.0659489,45 C18.7944768,45 14.8355516,43.9352818 11.189173,41.8058455 C7.77199541,39.822547 5.07367529,37.1398747 3.09421265,33.7578288 C1.03140422,30.2505219 0,26.5031315 0,22.5156576 C0,18.5281837 1.02098599,14.7912317 3.06295798,11.3048017 C5.14660286,7.75574113 7.96994168,4.97912317 11.5329744,2.97494781 C15.0751707,0.991649269 18.9507502,0 23.1597129,0 C27.5562036,0 31.5880564,1.27348643 35.2552714,3.82045929 C36.9430238,4.98956159 38.7037037,6.55532359 40.5373112,8.5177453 L33.0674443,15.3757829 Z" id="Path" fill-rule="nonzero"></path>
            <path d="M64.9159563,0 C71.6252929,0 77.2823887,2.48434238 81.8872439,7.45302714 C85.8878421,11.7536534 87.8881412,16.7745303 87.8881412,22.5156576 C87.8881412,26.5240084 86.8463187,30.2713987 84.7626738,33.7578288 C82.7623748,37.1189979 80.0432182,39.8016701 76.6052041,41.8058455 C72.979662,43.9352818 69.031155,45 64.759683,45 C60.7382483,45 56.9043418,43.9352818 53.2579632,41.8058455 C49.7991127,39.8016701 47.0799561,37.1189979 45.1004935,33.7578288 C43.0168486,30.2505219 41.9750262,26.388309 41.9750262,22.17119 C41.9750262,18.2881002 43.0168486,14.6555324 45.1004935,11.2734864 C47.3091571,7.70354906 50.1429141,4.93736952 53.6017646,2.97494781 C57.1231245,0.991649269 60.8945217,0 64.9159563,0 Z M64.9159563,9.67640919 C61.0612133,9.67640919 57.8836549,11.1899791 55.383281,14.217119 C53.4038184,16.5970772 52.414087,19.3006263 52.414087,22.3277662 C52.414087,26.2317328 53.758038,29.4258873 56.4459399,31.9102296 C58.9254773,34.1858038 61.7279797,35.3235908 64.853447,35.3235908 C67.1246199,35.3235908 69.2603559,34.7181628 71.260655,33.5073069 C73.2609541,32.2964509 74.8028513,30.7098121 75.8863466,28.7473904 C76.9281691,26.8475992 77.4490803,24.7703549 77.4490803,22.5156576 C77.4490803,18.8622129 76.1572205,15.7620042 73.5735008,13.2150313 C71.1773092,10.8559499 68.291461,9.67640919 64.9159563,9.67640919 Z" id="Shape" fill-rule="nonzero"></path>
            <polygon id="Path" fill-rule="nonzero" points="115.7048 10.7411273 101.733961 10.7411273 101.733961 17.4112735 114.485868 17.4112735 114.485868 27.0876827 101.733961 27.0876827 101.733961 43.8726514 91.3261552 43.8726514 91.3261552 1.12734864 115.7048 1.12734864"></polygon>
            <polygon id="Path" fill-rule="nonzero" points="145.365485 10.7411273 131.394646 10.7411273 131.394646 17.4112735 144.146553 17.4112735 144.146553 27.0876827 131.394646 27.0876827 131.394646 43.8726514 120.98684 43.8726514 120.98684 1.12734864 145.365485 1.12734864"></polygon>
            <polygon id="Path" fill-rule="nonzero" points="176.370121 10.6784969 160.961567 10.6784969 160.961567 17.4425887 174.651114 17.4425887 174.651114 27.0563674 160.961567 27.0563674 160.961567 34.1962422 176.932705 34.1962422 176.932705 43.8726514 150.647525 43.8726514 150.647525 1.12734864 176.370121 1.12734864"></polygon>
            <polygon id="Path" fill-rule="nonzero" points="208.437416 10.6784969 193.028862 10.6784969 193.028862 17.4425887 206.718409 17.4425887 206.718409 27.0563674 193.028862 27.0563674 193.028862 34.1962422 209 34.1962422 209 43.8726514 182.71482 43.8726514 182.71482 1.12734864 208.437416 1.12734864"></polygon>
        </g>
        <g id="COFFEE" stroke-width="1" transform="translate(273, 56)" fill="color(display-p3 1.000 1.000 1.000)">
            <path d="M33.0674443,15.3757829 C31.338019,13.3716075 29.6763122,11.9206681 28.0823239,11.0229645 C26.4883356,10.125261 24.7537012,9.67640919 22.8784208,9.67640919 C18.9611684,9.67640919 15.78361,11.1795407 13.3457455,14.1858038 C11.4079557,16.565762 10.4390609,19.3319415 10.4390609,22.4843424 C10.4390609,26.263048 11.7621754,29.4050104 14.4084044,31.9102296 C16.8254324,34.1858038 19.6696077,35.3235908 22.9409302,35.3235908 C24.837047,35.3235908 26.5925178,34.8695198 28.2073426,33.9613779 C29.8221674,33.0532359 31.5047106,31.5762004 33.2549723,29.5302714 L40.7248392,36.388309 C35.3907083,42.1294363 29.5044115,45 23.0659489,45 C18.7944768,45 14.8355516,43.9352818 11.189173,41.8058455 C7.77199541,39.822547 5.07367529,37.1398747 3.09421265,33.7578288 C1.03140422,30.2505219 0,26.5031315 0,22.5156576 C0,18.5281837 1.02098599,14.7912317 3.06295798,11.3048017 C5.14660286,7.75574113 7.96994168,4.97912317 11.5329744,2.97494781 C15.0751707,0.991649269 18.9507502,0 23.1597129,0 C27.5562036,0 31.5880564,1.27348643 35.2552714,3.82045929 C36.9430238,4.98956159 38.7037037,6.55532359 40.5373112,8.5177453 L33.0674443,15.3757829 Z" id="Path" fill-rule="nonzero"></path>
            <path d="M64.9159563,0 C71.6252929,0 77.2823887,2.48434238 81.8872439,7.45302714 C85.8878421,11.7536534 87.8881412,16.7745303 87.8881412,22.5156576 C87.8881412,26.5240084 86.8463187,30.2713987 84.7626738,33.7578288 C82.7623748,37.1189979 80.0432182,39.8016701 76.6052041,41.8058455 C72.979662,43.9352818 69.031155,45 64.759683,45 C60.7382483,45 56.9043418,43.9352818 53.2579632,41.8058455 C49.7991127,39.8016701 47.0799561,37.1189979 45.1004935,33.7578288 C43.0168486,30.2505219 41.9750262,26.388309 41.9750262,22.17119 C41.9750262,18.2881002 43.0168486,14.6555324 45.1004935,11.2734864 C47.3091571,7.70354906 50.1429141,4.93736952 53.6017646,2.97494781 C57.1231245,0.991649269 60.8945217,0 64.9159563,0 Z M64.9159563,9.67640919 C61.0612133,9.67640919 57.8836549,11.1899791 55.383281,14.217119 C53.4038184,16.5970772 52.414087,19.3006263 52.414087,22.3277662 C52.414087,26.2317328 53.758038,29.4258873 56.4459399,31.9102296 C58.9254773,34.1858038 61.7279797,35.3235908 64.853447,35.3235908 C67.1246199,35.3235908 69.2603559,34.7181628 71.260655,33.5073069 C73.2609541,32.2964509 74.8028513,30.7098121 75.8863466,28.7473904 C76.9281691,26.8475992 77.4490803,24.7703549 77.4490803,22.5156576 C77.4490803,18.8622129 76.1572205,15.7620042 73.5735008,13.2150313 C71.1773092,10.8559499 68.291461,9.67640919 64.9159563,9.67640919 Z" id="Shape" fill-rule="nonzero"></path>
            <polygon id="Path" fill-rule="nonzero" points="115.7048 10.7411273 101.733961 10.7411273 101.733961 17.4112735 114.485868 17.4112735 114.485868 27.0876827 101.733961 27.0876827 101.733961 43.8726514 91.3261552 43.8726514 91.3261552 1.12734864 115.7048 1.12734864"></polygon>
            <polygon id="Path" fill-rule="nonzero" points="145.365485 10.7411273 131.394646 10.7411273 131.394646 17.4112735 144.146553 17.4112735 144.146553 27.0876827 131.394646 27.0876827 131.394646 43.8726514 120.98684 43.8726514 120.98684 1.12734864 145.365485 1.12734864"></polygon>
            <polygon id="Path" fill-rule="nonzero" points="176.370121 10.6784969 160.961567 10.6784969 160.961567 17.4425887 174.651114 17.4425887 174.651114 27.0563674 160.961567 27.0563674 160.961567 34.1962422 176.932705 34.1962422 176.932705 43.8726514 150.647525 43.8726514 150.647525 1.12734864 176.370121 1.12734864"></polygon>
            <polygon id="Path" fill-rule="nonzero" points="208.437416 10.6784969 193.028862 10.6784969 193.028862 17.4425887 206.718409 17.4425887 206.718409 27.0563674 193.028862 27.0563674 193.028862 34.1962422 209 34.1962422 209 43.8726514 182.71482 43.8726514 182.71482 1.12734864 208.437416 1.12734864"></polygon>
        </g>
        <g id="COFFEE" stroke-width="1" transform="translate(519, 56)" fill="color(display-p3 1.000 1.000 1.000)">
            <path d="M33.0674443,15.3757829 C31.338019,13.3716075 29.6763122,11.9206681 28.0823239,11.0229645 C26.4883356,10.125261 24.7537012,9.67640919 22.8784208,9.67640919 C18.9611684,9.67640919 15.78361,11.1795407 13.3457455,14.1858038 C11.4079557,16.565762 10.4390609,19.3319415 10.4390609,22.4843424 C10.4390609,26.263048 11.7621754,29.4050104 14.4084044,31.9102296 C16.8254324,34.1858038 19.6696077,35.3235908 22.9409302,35.3235908 C24.837047,35.3235908 26.5925178,34.8695198 28.2073426,33.9613779 C29.8221674,33.0532359 31.5047106,31.5762004 33.2549723,29.5302714 L40.7248392,36.388309 C35.3907083,42.1294363 29.5044115,45 23.0659489,45 C18.7944768,45 14.8355516,43.9352818 11.189173,41.8058455 C7.77199541,39.822547 5.07367529,37.1398747 3.09421265,33.7578288 C1.03140422,30.2505219 0,26.5031315 0,22.5156576 C0,18.5281837 1.02098599,14.7912317 3.06295798,11.3048017 C5.14660286,7.75574113 7.96994168,4.97912317 11.5329744,2.97494781 C15.0751707,0.991649269 18.9507502,0 23.1597129,0 C27.5562036,0 31.5880564,1.27348643 35.2552714,3.82045929 C36.9430238,4.98956159 38.7037037,6.55532359 40.5373112,8.5177453 L33.0674443,15.3757829 Z" id="Path" fill-rule="nonzero"></path>
            <path d="M64.9159563,0 C71.6252929,0 77.2823887,2.48434238 81.8872439,7.45302714 C85.8878421,11.7536534 87.8881412,16.7745303 87.8881412,22.5156576 C87.8881412,26.5240084 86.8463187,30.2713987 84.7626738,33.7578288 C82.7623748,37.1189979 80.0432182,39.8016701 76.6052041,41.8058455 C72.979662,43.9352818 69.031155,45 64.759683,45 C60.7382483,45 56.9043418,43.9352818 53.2579632,41.8058455 C49.7991127,39.8016701 47.0799561,37.1189979 45.1004935,33.7578288 C43.0168486,30.2505219 41.9750262,26.388309 41.9750262,22.17119 C41.9750262,18.2881002 43.0168486,14.6555324 45.1004935,11.2734864 C47.3091571,7.70354906 50.1429141,4.93736952 53.6017646,2.97494781 C57.1231245,0.991649269 60.8945217,0 64.9159563,0 Z M64.9159563,9.67640919 C61.0612133,9.67640919 57.8836549,11.1899791 55.383281,14.217119 C53.4038184,16.5970772 52.414087,19.3006263 52.414087,22.3277662 C52.414087,26.2317328 53.758038,29.4258873 56.4459399,31.9102296 C58.9254773,34.1858038 61.7279797,35.3235908 64.853447,35.3235908 C67.1246199,35.3235908 69.2603559,34.7181628 71.260655,33.5073069 C73.2609541,32.2964509 74.8028513,30.7098121 75.8863466,28.7473904 C76.9281691,26.8475992 77.4490803,24.7703549 77.4490803,22.5156576 C77.4490803,18.8622129 76.1572205,15.7620042 73.5735008,13.2150313 C71.1773092,10.8559499 68.291461,9.67640919 64.9159563,9.67640919 Z" id="Shape" fill-rule="nonzero"></path>
            <polygon id="Path" fill-rule="nonzero" points="115.7048 10.7411273 101.733961 10.7411273 101.733961 17.4112735 114.485868 17.4112735 114.485868 27.0876827 101.733961 27.0876827 101.733961 43.8726514 91.3261552 43.8726514 91.3261552 1.12734864 115.7048 1.12734864"></polygon>
            <polygon id="Path" fill-rule="nonzero" points="145.365485 10.7411273 131.394646 10.7411273 131.394646 17.4112735 144.146553 17.4112735 144.146553 27.0876827 131.394646 27.0876827 131.394646 43.8726514 120.98684 43.8726514 120.98684 1.12734864 145.365485 1.12734864"></polygon>
            <polygon id="Path" fill-rule="nonzero" points="176.370121 10.6784969 160.961567 10.6784969 160.961567 17.4425887 174.651114 17.4425887 174.651114 27.0563674 160.961567 27.0563674 160.961567 34.1962422 176.932705 34.1962422 176.932705 43.8726514 150.647525 43.8726514 150.647525 1.12734864 176.370121 1.12734864"></polygon>
            <polygon id="Path" fill-rule="nonzero" points="208.437416 10.6784969 193.028862 10.6784969 193.028862 17.4425887 206.718409 17.4425887 206.718409 27.0563674 193.028862 27.0563674 193.028862 34.1962422 209 34.1962422 209 43.8726514 182.71482 43.8726514 182.71482 1.12734864 208.437416 1.12734864"></polygon>
        </g>
        <g id="COFFEE-Copy" stroke-width="1" transform="translate(765, 56)" fill="color(display-p3 1.000 1.000 1.000)">
            <path d="M33.0674443,15.3757829 C31.338019,13.3716075 29.6763122,11.9206681 28.0823239,11.0229645 C26.4883356,10.125261 24.7537012,9.67640919 22.8784208,9.67640919 C18.9611684,9.67640919 15.78361,11.1795407 13.3457455,14.1858038 C11.4079557,16.565762 10.4390609,19.3319415 10.4390609,22.4843424 C10.4390609,26.263048 11.7621754,29.4050104 14.4084044,31.9102296 C16.8254324,34.1858038 19.6696077,35.3235908 22.9409302,35.3235908 C24.837047,35.3235908 26.5925178,34.8695198 28.2073426,33.9613779 C29.8221674,33.0532359 31.5047106,31.5762004 33.2549723,29.5302714 L40.7248392,36.388309 C35.3907083,42.1294363 29.5044115,45 23.0659489,45 C18.7944768,45 14.8355516,43.9352818 11.189173,41.8058455 C7.77199541,39.822547 5.07367529,37.1398747 3.09421265,33.7578288 C1.03140422,30.2505219 0,26.5031315 0,22.5156576 C0,18.5281837 1.02098599,14.7912317 3.06295798,11.3048017 C5.14660286,7.75574113 7.96994168,4.97912317 11.5329744,2.97494781 C15.0751707,0.991649269 18.9507502,0 23.1597129,0 C27.5562036,0 31.5880564,1.27348643 35.2552714,3.82045929 C36.9430238,4.98956159 38.7037037,6.55532359 40.5373112,8.5177453 L33.0674443,15.3757829 Z" id="Path" fill-rule="nonzero"></path>
            <path d="M64.9159563,0 C71.6252929,0 77.2823887,2.48434238 81.8872439,7.45302714 C85.8878421,11.7536534 87.8881412,16.7745303 87.8881412,22.5156576 C87.8881412,26.5240084 86.8463187,30.2713987 84.7626738,33.7578288 C82.7623748,37.1189979 80.0432182,39.8016701 76.6052041,41.8058455 C72.979662,43.9352818 69.031155,45 64.759683,45 C60.7382483,45 56.9043418,43.9352818 53.2579632,41.8058455 C49.7991127,39.8016701 47.0799561,37.1189979 45.1004935,33.7578288 C43.0168486,30.2505219 41.9750262,26.388309 41.9750262,22.17119 C41.9750262,18.2881002 43.0168486,14.6555324 45.1004935,11.2734864 C47.3091571,7.70354906 50.1429141,4.93736952 53.6017646,2.97494781 C57.1231245,0.991649269 60.8945217,0 64.9159563,0 Z M64.9159563,9.67640919 C61.0612133,9.67640919 57.8836549,11.1899791 55.383281,14.217119 C53.4038184,16.5970772 52.414087,19.3006263 52.414087,22.3277662 C52.414087,26.2317328 53.758038,29.4258873 56.4459399,31.9102296 C58.9254773,34.1858038 61.7279797,35.3235908 64.853447,35.3235908 C67.1246199,35.3235908 69.2603559,34.7181628 71.260655,33.5073069 C73.2609541,32.2964509 74.8028513,30.7098121 75.8863466,28.7473904 C76.9281691,26.8475992 77.4490803,24.7703549 77.4490803,22.5156576 C77.4490803,18.8622129 76.1572205,15.7620042 73.5735008,13.2150313 C71.1773092,10.8559499 68.291461,9.67640919 64.9159563,9.67640919 Z" id="Shape" fill-rule="nonzero"></path>
            <polygon id="Path" fill-rule="nonzero" points="115.7048 10.7411273 101.733961 10.7411273 101.733961 17.4112735 114.485868 17.4112735 114.485868 27.0876827 101.733961 27.0876827 101.733961 43.8726514 91.3261552 43.8726514 91.3261552 1.12734864 115.7048 1.12734864"></polygon>
            <polygon id="Path" fill-rule="nonzero" points="145.365485 10.7411273 131.394646 10.7411273 131.394646 17.4112735 144.146553 17.4112735 144.146553 27.0876827 131.394646 27.0876827 131.394646 43.8726514 120.98684 43.8726514 120.98684 1.12734864 145.365485 1.12734864"></polygon>
            <polygon id="Path" fill-rule="nonzero" points="176.370121 10.6784969 160.961567 10.6784969 160.961567 17.4425887 174.651114 17.4425887 174.651114 27.0563674 160.961567 27.0563674 160.961567 34.1962422 176.932705 34.1962422 176.932705 43.8726514 150.647525 43.8726514 150.647525 1.12734864 176.370121 1.12734864"></polygon>
            <polygon id="Path" fill-rule="nonzero" points="208.437416 10.6784969 193.028862 10.6784969 193.028862 17.4425887 206.718409 17.4425887 206.718409 27.0563674 193.028862 27.0563674 193.028862 34.1962422 209 34.1962422 209 43.8726514 182.71482 43.8726514 182.71482 1.12734864 208.437416 1.12734864"></polygon>
        </g>
    </g>
</svg>